<?xml version="1.0" standalone="no"?>
<!DOCTYPE svg PUBLIC "-//W3C//DTD SVG 20010904//EN"
 "http://www.w3.org/TR/2001/REC-SVG-20010904/DTD/svg10.dtd">
<svg version="1.0" xmlns="http://www.w3.org/2000/svg"
 width="260.000000pt" height="260.000000pt" viewBox="0 0 260.000000 260.000000"
 preserveAspectRatio="xMidYMid meet">
<metadata>
Created by potrace 1.14, written by Peter Selinger 2001-2017
</metadata>
<g transform="translate(0.000000,260.000000) scale(0.100000,-0.100000)"
fill="#000000" stroke="none">
<path d="M1280 2483 c0 -5 -10 -20 -23 -35 -12 -14 -98 -129 -192 -255 -93
-125 -337 -453 -543 -728 -205 -275 -381 -510 -390 -523 -9 -13 -43 -58 -75
-100 l-57 -76 0 -383 0 -383 1295 0 1295 0 0 383 c0 363 -1 384 -19 407 -28
36 -862 1142 -886 1175 -11 15 -25 32 -30 39 -6 6 -91 118 -189 249 -98 130
-180 237 -182 237 -2 0 -4 -3 -4 -7z"/>
</g>
</svg>
